<?xml version="1.0" encoding="iso-8859-1"?>
<!-- Generator: Adobe Illustrator 27.2.0, SVG Export Plug-In . SVG Version: 6.00 Build 0)  -->
<svg version="1.1" baseProfile="basic" id="&#x421;&#x43B;&#x43E;&#x439;_1"
	 xmlns="http://www.w3.org/2000/svg" xmlns:xlink="http://www.w3.org/1999/xlink" x="0px" y="0px" viewBox="0 0 64 64"
	 xml:space="preserve">
<ellipse style="opacity:0.3;" cx="32" cy="61" rx="20" ry="3"/>
<path style="fill:#37D0EE;" d="M36,8h-8c-3.866,0-7,3.134-7,7v1c0,1.105,0.895,2,2,2h7c1.105,0,2,0.895,2,2v0c0,1.105-0.895,2-2,2
	H14c-3.314,0-6,2.686-6,6v8c0,3.314,2.686,6,6,6h7v-5c0-2.761,2.239-5,5-5h12c2.761,0,5-2.239,5-5V15C43,11.134,39.866,8,36,8z"/>
<path style="fill:none;stroke:#F2F2F2;stroke-width:3;stroke-linecap:round;stroke-linejoin:round;stroke-miterlimit:10;" d="
	M11.5,30.5V28c0-1.379,1.122-2.5,2.5-2.5"/>
<path style="opacity:0.3;fill:#FFFFFF;" d="M23,22h-9c-3.314,0-6,2.686-6,6v8c0,0.69,0.122,1.349,0.336,1.966
	C10.938,37.79,13,35.646,13,33v-5c0-0.552,0.449-1,1-1h4C20.761,27,23,24.762,23,22z"/>
<path style="fill:#FFCE29;" d="M50,22h-7v5c0,2.761-2.239,5-5,5H26c-2.761,0-5,2.239-5,5v12c0,3.866,3.134,7,7,7h8
	c3.866,0,7-3.134,7-7v-1c0-1.105-0.895-2-2-2h-7c-1.105,0-2-0.895-2-2v0c0-1.105,0.895-2,2-2h16c3.314,0,6-2.686,6-6v-8
	C56,24.686,53.314,22,50,22z"/>
<circle style="fill:#9C34C2;" cx="28" cy="13" r="2"/>
<circle style="fill:#9C34C2;" cx="36" cy="51" r="2"/>
<path style="opacity:0.15;" d="M41,42h9c3.314,0,6-2.686,6-6v-8c0-0.69-0.122-1.349-0.336-1.966C53.062,26.21,51,28.354,51,31v5
	c0,0.552-0.449,1-1,1h-4C43.239,37,41,39.238,41,42z"/>
</svg>